<?xml version="1.0" encoding="utf-8"?>
<!-- Generator: Adobe Illustrator 21.1.0, SVG Export Plug-In . SVG Version: 6.00 Build 0)  -->
<svg version="1.1" id="Layer_1" xmlns="http://www.w3.org/2000/svg" xmlns:xlink="http://www.w3.org/1999/xlink" x="0px" y="0px"
	 viewBox="0 0 100 100" style="enable-background:new 0 0 100 100;" xml:space="preserve">
<style type="text/css">
	.st0{fill:#C10000;}
</style>
<title>Artboard 1</title>
<image style="overflow:visible;enable-background:new    ;" width="276" height="424" xlink:href="6B6D40A2E04559E7.png"  transform="matrix(0.2391 0 0 0.2366 16.5 0)">
</image>
<path class="st0" d="M61.4,32l0.3,5.8c0,1-0.6,1.9-1.5,2.3c-1.3,0.8-2.8,1.4-4.3,1.7c-3.9,0.8-7.9,0.8-11.8,0
	c-1.5-0.3-3-0.9-4.3-1.7c-0.9-0.5-1.5-1.4-1.5-2.3l0.3-5.8l10.5,3.3c0.6,0.2,1.2,0.2,1.8,0L61.4,32z M71.1,26.1
	c0,0.3-0.2,0.5-0.4,0.6l-20.5,6.5H50h-0.2l-12-3.8c-0.6,0.5-1.1,1.2-1.3,2c-0.4,1.1-0.6,2.2-0.6,3.3c0.7,0.4,1.2,1.2,1.2,2
	s-0.4,1.6-1.1,2l1.1,7.9c0,0.3-0.2,0.6-0.5,0.7c0,0,0,0-0.1,0H33c-0.3,0-0.6-0.3-0.6-0.6c0,0,0,0,0-0.1l1.1-7.9
	c-1.1-0.7-1.4-2.2-0.7-3.2c0.2-0.3,0.5-0.6,0.8-0.8c0-2.1,0.6-4.2,1.8-6l-6.1-1.9c-0.3-0.1-0.5-0.4-0.4-0.8c0.1-0.2,0.2-0.3,0.4-0.4
	L49.8,19H50h0.2l20.5,6.5C71,25.5,71.2,25.8,71.1,26.1L71.1,26.1z"/>
</svg>
