<?xml version="1.0" encoding="utf-8"?>
<!-- Generator: Adobe Illustrator 21.1.0, SVG Export Plug-In . SVG Version: 6.00 Build 0)  -->
<svg version="1.1" id="Layer_1" xmlns="http://www.w3.org/2000/svg" xmlns:xlink="http://www.w3.org/1999/xlink" x="0px" y="0px"
	 viewBox="0 0 100 100" style="enable-background:new 0 0 100 100;" xml:space="preserve">
<style type="text/css">
	.st0{fill:#C10000;}
</style>
<title>Artboard 1</title>
<image style="overflow:visible;enable-background:new    ;" width="276" height="424" xlink:href="A9334B5B6032BDD2.png"  transform="matrix(0.2391 0 0 0.2366 16.5 0)">
</image>
<path class="st0" d="M65.3,40.1l0.6,5.8c0,0.3-0.1,0.7-0.3,0.9c-0.2,0.3-0.5,0.4-0.9,0.4H34.2c-0.4,0-0.7-0.1-0.9-0.4
	c-0.2-0.3-0.3-0.6-0.3-0.9l0.6-5.8H65.3z M63.6,24.6l1.6,14.3H33.8l1.6-14.3c0-0.3,0.2-0.5,0.4-0.7c0.2-0.2,0.5-0.3,0.8-0.3h4.7V26
	c0,0.7,0.2,1.2,0.7,1.7c0.5,0.5,1,0.7,1.7,0.7c0.7,0,1.2-0.2,1.7-0.7c0.5-0.5,0.7-1,0.7-1.7v-2.4H53V26c0,0.7,0.2,1.2,0.7,1.7
	c0.5,0.5,1,0.7,1.7,0.7c0.7,0,1.2-0.2,1.7-0.7c0.5-0.5,0.7-1,0.7-1.7v-2.4h4.7c0.3,0,0.6,0.1,0.8,0.3C63.5,24.1,63.6,24.4,63.6,24.6
	z M56.6,21.2V26c0,0.3-0.1,0.6-0.3,0.8c-0.2,0.2-0.5,0.3-0.8,0.3s-0.6-0.1-0.8-0.3c-0.2-0.2-0.3-0.5-0.3-0.8v-4.7
	c0-1.3-0.5-2.4-1.4-3.3c-0.9-0.9-2-1.4-3.3-1.4s-2.4,0.5-3.3,1.4s-1.4,2-1.4,3.3V26c0,0.3-0.1,0.6-0.3,0.8c-0.2,0.2-0.5,0.3-0.8,0.3
	S43,27,42.8,26.8c-0.2-0.2-0.3-0.5-0.3-0.8v-4.7c0-2,0.7-3.6,2.1-5s3-2.1,5-2.1s3.6,0.7,5,2.1C55.9,17.6,56.6,19.3,56.6,21.2z"/>
</svg>
